<?xml version="1.0" encoding="UTF-8" standalone="no"?>
<!-- Created with Inkscape (http://www.inkscape.org/) -->

<svg
   xmlns:dc="http://purl.org/dc/elements/1.1/"
   xmlns:cc="http://creativecommons.org/ns#"
   xmlns:rdf="http://www.w3.org/1999/02/22-rdf-syntax-ns#"
   xmlns:svg="http://www.w3.org/2000/svg"
   xmlns="http://www.w3.org/2000/svg"
   xmlns:sodipodi="http://sodipodi.sourceforge.net/DTD/sodipodi-0.dtd"
   xmlns:inkscape="http://www.inkscape.org/namespaces/inkscape"
   width="105mm"
   height="148mm"
   viewBox="0 0 372.04724 524.40945"
   id="svg5794"
   version="1.1"
   inkscape:version="0.91 r13725"
   sodipodi:docname="earth.svg">
  <defs
     id="defs5796" />
  <sodipodi:namedview
     id="base"
     pagecolor="#ffffff"
     bordercolor="#666666"
     borderopacity="1.0"
     inkscape:pageopacity="0.0"
     inkscape:pageshadow="2"
     inkscape:zoom="0.98994949"
     inkscape:cx="203.9631"
     inkscape:cy="398.78169"
     inkscape:document-units="px"
     inkscape:current-layer="layer1"
     showgrid="false"
     inkscape:window-width="1859"
     inkscape:window-height="1056"
     inkscape:window-x="61"
     inkscape:window-y="24"
     inkscape:window-maximized="1" />
  <metadata
     id="metadata5799">
    <rdf:RDF>
      <cc:Work
         rdf:about="">
        <dc:format>image/svg+xml</dc:format>
        <dc:type
           rdf:resource="http://purl.org/dc/dcmitype/StillImage" />
        <dc:title></dc:title>
      </cc:Work>
    </rdf:RDF>
  </metadata>
  <g
     inkscape:label="Layer 1"
     inkscape:groupmode="layer"
     id="layer1"
     transform="translate(0,-527.95276)">
    <g
       style="display:inline;opacity:1"
       id="g14247"
       transform="matrix(1.3395139,-0.43146009,0.43143624,1.3395878,-319.97238,-218.9663)">
      <circle
         r="82.130852"
         cy="793.24548"
         cx="122.3229"
         id="path11230-4-6"
         style="display:inline;opacity:1;fill:#4aabff;fill-opacity:1;fill-rule:evenodd;stroke:none;stroke-width:3;stroke-linecap:round;stroke-linejoin:round;stroke-miterlimit:4;stroke-dasharray:none;stroke-dashoffset:0;stroke-opacity:1" />
      <path
         inkscape:connector-curvature="0"
         id="path11268"
         d="m 73.08105,736.86034 c -0.889586,-0.002 -1.774264,0.013 -2.652343,0.043 -3.581214,0.12229 -7.126489,1.0224 -10.527344,2.24609 a 82.130852,82.130852 0 0 0 -20.335938,54.00782 82.130852,82.130852 0 0 0 48.550782,74.87695 c -0.217151,-0.8826 -0.476655,-1.75945 -0.636719,-2.50781 -0.821295,-3.8399 -4.145032,-6.87946 -4.81836,-10.74805 -0.828729,-4.76144 -0.03048,-9.76082 1.111329,-14.45703 0.824093,-3.38946 4.119905,-6.14877 4.078125,-9.63672 -0.05034,-4.2025 -2.247824,-8.49046 -5.189454,-11.49219 -2.011499,-2.0526 -4.971421,-3.12207 -7.785156,-3.70703 -7.020541,-1.45953 -15.030109,3.838 -21.498047,0.74219 -3.343498,-1.60033 -5.951908,-5.26033 -6.671875,-8.89649 -0.768339,-3.88047 0.494494,-8.40061 2.964844,-11.49023 3.209368,-4.01389 8.801414,-5.53645 13.714844,-7.04297 3.926837,-1.20401 8.761382,0.71339 12.232422,-1.48242 4.693041,-2.96886 5.05804,-10.07282 8.896484,-14.08594 2.392843,-2.50173 5.394736,-4.45402 8.525392,-5.93164 3.71434,-1.75311 9.381184,-0.062 11.861334,-3.33594 2.38752,-3.15164 1.94807,-8.42067 0,-11.86133 -1.06492,-1.88084 -3.85693,-2.00578 -5.560554,-3.33593 -3.03005,-2.36579 -4.74635,-6.37552 -8.154297,-8.1543 -5.452146,-2.84575 -11.878361,-3.73333 -18.105469,-3.75 z"
         style="fill:#178532;fill-opacity:1;fill-rule:evenodd;stroke:#000000;stroke-width:0.71057147px;stroke-linecap:butt;stroke-linejoin:miter;stroke-opacity:1" />
      <path
         inkscape:connector-curvature="0"
         id="path11289"
         d="m 171.83305,728.16316 c -0.28099,-0.0142 -0.56238,-0.039 -0.84235,-0.0355 -2.57089,0.0316 -5.47741,0.93587 -7.15127,2.88745 -2.9763,3.47013 -4.43543,8.96713 -3.13837,13.35093 0.89581,3.02766 3.8004,5.68568 6.83534,6.55647 1.96595,0.56403 4.64005,0.26926 6.00653,-1.25251 1.24926,-1.3912 -0.6804,-4.17487 0.54994,-5.58283 0.18179,-0.20805 0.55206,-0.29691 0.80741,-0.19142 3.7145,1.53449 7.85325,6.5235 6.3483,10.25005 -1.30372,3.22831 -6.92006,1.21083 -10.1247,2.57172 -2.73422,1.16111 -5.30389,2.77754 -7.57541,4.69178 -1.39502,1.17562 -2.25449,2.89576 -3.62752,4.09699 -1.77663,1.55432 -5.66804,1.59767 -5.87992,3.94872 -0.0646,0.71755 0.91771,1.16178 1.5496,1.50787 1.30042,0.71226 3.09936,0.19285 4.33116,1.01812 1.09118,0.73107 2.30721,1.89002 2.29264,3.20338 -0.024,2.15772 -4.01927,3.02666 -3.88416,5.18027 0.12879,2.0524 2.24772,4.1809 4.28839,4.43493 2.0808,0.25903 4.30909,-1.49239 5.34928,-3.31305 1.03384,-1.80956 -1.66437,-5.20146 0.13689,-6.24973 2.0465,-1.19098 4.58715,5.05793 6.25132,3.37352 1.93643,-1.96 -5.88333,-5.20395 -4.0132,-7.22731 1.28289,-1.388 4.09889,0.79088 5.15824,2.35617 0.50418,0.74496 -0.44807,2.00266 0.12703,2.69431 0.94798,1.14006 3.07065,1.79883 4.33117,1.01812 1.57566,-0.97586 1.63174,-3.59478 1.27243,-5.413 -0.25465,-1.28853 -3.14441,-2.20237 -2.29456,-3.20382 1.06663,-1.25689 3.73428,0.69421 4.43811,2.18488 0.58029,1.22904 -0.95876,2.61101 -0.93321,3.96991 0.0292,1.54791 -0.0369,3.5894 1.23048,4.47854 2.65509,1.8626 7.58805,-3.22826 9.70057,-0.76737 1.60963,1.87504 0.21073,5.64604 -1.69655,7.21733 -2.86887,2.36347 -7.45249,-0.0152 -11.14322,0.42625 -4.9955,0.59756 -10.80777,-0.0735 -14.79319,2.99712 -2.6117,2.01221 -3.78333,5.62776 -4.37075,8.87197 -0.81454,4.49851 -1.65119,10.21046 1.36217,13.64846 2.60614,2.9734 7.69764,1.80947 11.54661,2.71424 1.68392,0.39582 4.03898,-0.21484 5.05176,1.1875 2.04609,2.83315 -0.71808,6.95452 -0.93192,10.44273 -0.30842,5.03077 -1.92028,10.27336 -0.50651,15.11123 0.51522,1.7631 1.33761,4.10459 3.12164,4.54188 2.55137,0.62531 5.0826,-1.85886 6.96176,-3.69443 0.28702,-0.28037 0.56129,-0.57062 0.83299,-0.86355 a 82.130852,82.130852 0 0 0 13.24493,-29.06657 82.130852,82.130852 0 0 0 -30.21992,-84.07175 z"
         style="fill:#178532;fill-opacity:1;fill-rule:evenodd;stroke:#000000;stroke-width:0.71057147px;stroke-linecap:butt;stroke-linejoin:miter;stroke-opacity:1" />
      <path
         sodipodi:nodetypes="aaaaasaaa"
         inkscape:connector-curvature="0"
         id="path11307"
         d="m 150.60756,750.06187 c -1.87056,2.22168 0.25306,5.80306 0.37708,8.70467 0.0969,2.26617 -1.67389,5.65791 0.2866,6.79868 1.3392,0.77924 2.90804,-1.1775 4.13431,-2.12456 1.29962,-1.00373 3.33149,-2.02875 3.28602,-3.67022 -0.0304,-1.07849 -0.83971,-3.3259 -2.28924,-2.28825 -0.29292,0.20968 -0.37423,-1.28291 -0.63076,-1.8984 -0.83492,-2.00317 -1.0249,-4.79206 -2.94286,-5.80755 -0.65972,-0.3493 -1.74037,-0.2854 -2.22115,0.28563 z"
         style="fill:#178532;fill-opacity:1;fill-rule:evenodd;stroke:#000000;stroke-width:0.71057147px;stroke-linecap:butt;stroke-linejoin:miter;stroke-opacity:1" />
      <path
         sodipodi:nodetypes="caccc"
         inkscape:connector-curvature="0"
         id="path11307-6"
         d="m 144.9375,760.5289 c 0.69799,0.40811 1.6642,-0.52521 2.14794,-1.21193 0.72053,-1.02285 0.7202,-2.82696 0.69415,-3.72198 -1.05993,-1.03062 -2.66644,1.57715 -2.87181,2.24333 -1.13867,1.66462 -1.09063,1.93271 0.0302,2.69057 z"
         style="display:inline;opacity:1;fill:#178532;fill-opacity:1;fill-rule:evenodd;stroke:#000000;stroke-width:0.71057147px;stroke-linecap:butt;stroke-linejoin:miter;stroke-opacity:1" />
      <path
         sodipodi:nodetypes="caccc"
         inkscape:connector-curvature="0"
         id="path11307-6-9"
         d="m 138.60016,742.37431 c 0.0658,1.1302 1.85789,1.50585 3.00424,1.51979 1.70747,0.0208 3.75543,-1.41113 4.75179,-2.1514 0.36652,-2.04229 -3.81195,-1.82898 -4.72394,-1.53764 -2.75306,0.005 -3.02098,0.27361 -3.03209,2.16925 z"
         style="display:inline;opacity:1;fill:#178532;fill-opacity:1;fill-rule:evenodd;stroke:#000000;stroke-width:0.71057147px;stroke-linecap:butt;stroke-linejoin:miter;stroke-opacity:1" />
      <path
         sodipodi:nodetypes="caccc"
         inkscape:connector-curvature="0"
         id="path11307-6-9-3"
         d="m 60.134171,804.01774 c 0.3227,1.08514 4.172179,-1.66318 6.237704,-2.54407 2.258266,-0.96309 7.966313,0.54701 6.728128,-2.99634 -0.11054,-2.07197 -3.943993,0.20387 -4.765113,0.69617 -5.273518,-0.47683 -8.623689,2.99635 -8.200719,4.84424 z"
         style="display:inline;opacity:1;fill:#178532;fill-opacity:1;fill-rule:evenodd;stroke:#000000;stroke-width:0.71057147px;stroke-linecap:butt;stroke-linejoin:miter;stroke-opacity:1" />
    </g>
  </g>
</svg>
