<?xml version="1.0" encoding="UTF-8" standalone="no"?>
<!-- Created with Inkscape (http://www.inkscape.org/) -->

<svg
   xmlns:dc="http://purl.org/dc/elements/1.1/"
   xmlns:cc="http://creativecommons.org/ns#"
   xmlns:rdf="http://www.w3.org/1999/02/22-rdf-syntax-ns#"
   xmlns:svg="http://www.w3.org/2000/svg"
   xmlns="http://www.w3.org/2000/svg"
   xmlns:sodipodi="http://sodipodi.sourceforge.net/DTD/sodipodi-0.dtd"
   xmlns:inkscape="http://www.inkscape.org/namespaces/inkscape"
   width="297mm"
   height="210mm"
   viewBox="0 0 1052.3622 744.09448"
   id="svg5088"
   version="1.1"
   inkscape:version="0.91 r13725"
   sodipodi:docname="one_spoonfull_1tonne.svg">
  <defs
     id="defs5090" />
  <sodipodi:namedview
     id="base"
     pagecolor="#ffffff"
     bordercolor="#666666"
     borderopacity="1.0"
     inkscape:pageopacity="0.0"
     inkscape:pageshadow="2"
     inkscape:zoom="0.35"
     inkscape:cx="-119.28571"
     inkscape:cy="520"
     inkscape:document-units="px"
     inkscape:current-layer="layer1"
     showgrid="false"
     inkscape:window-width="1859"
     inkscape:window-height="1056"
     inkscape:window-x="61"
     inkscape:window-y="24"
     inkscape:window-maximized="1" />
  <metadata
     id="metadata5093">
    <rdf:RDF>
      <cc:Work
         rdf:about="">
        <dc:format>image/svg+xml</dc:format>
        <dc:type
           rdf:resource="http://purl.org/dc/dcmitype/StillImage" />
        <dc:title></dc:title>
      </cc:Work>
    </rdf:RDF>
  </metadata>
  <g
     inkscape:label="Layer 1"
     inkscape:groupmode="layer"
     id="layer1"
     transform="translate(0,-308.26772)">
    <g
       style="display:inline;opacity:1"
       id="g5837"
       transform="matrix(1.6210872,-0.44793506,0.44793506,1.6210872,-1880.2669,566.32604)">
      <g
         transform="matrix(0.9934885,0.11393242,-0.11393242,0.9934885,62.143943,48.724077)"
         id="g5825">
        <path
           style="opacity:1;fill:#4d4d4d;fill-opacity:1;fill-rule:evenodd;stroke:none;stroke-width:3;stroke-linecap:round;stroke-linejoin:round;stroke-miterlimit:4;stroke-dasharray:none;stroke-dashoffset:0;stroke-opacity:1"
           d="m 1473.8059,173.47628 a 30.395386,33.731464 0 0 0 -30.3965,33.73047 30.395386,33.731464 0 0 0 8.2656,23.08984 23.352551,32.171917 0 0 1 -1.5918,-11.67578 23.352551,32.171917 0 0 1 23.3516,-32.17187 23.352551,32.171917 0 0 1 23.3535,32.17187 23.352551,32.171917 0 0 1 -2,12.97266 30.395386,33.731464 0 0 0 9.4121,-24.38672 30.395386,33.731464 0 0 0 -30.3945,-33.73047 z"
           id="path5805"
           inkscape:connector-curvature="0" />
        <path
           style="fill:#333333;fill-opacity:1;fill-rule:evenodd;stroke:none;stroke-width:1px;stroke-linecap:butt;stroke-linejoin:miter;stroke-opacity:1"
           d="m 1396.1746,342.77735 25.1453,-134.30263 109.3037,0.16568 26.216,134.54544 z"
           id="path5803"
           inkscape:connector-curvature="0"
           sodipodi:nodetypes="ccccc" />
      </g>
      <g
         transform="translate(-8.1548598,-12.602965)"
         id="g5798">
        <g
           id="g5794">
          <path
             inkscape:connector-curvature="0"
             id="path5768"
             d="m 1409.7682,535.31716 a 64.031226,100.69379 86.987561 0 0 -0.142,1.96188 64.031226,100.69379 86.987561 0 0 100.9966,60.67542 64.031226,100.69379 86.987561 0 0 87.5672,-35.76624 64.038187,120.16985 87.436551 0 1 -72.7562,15.6489 64.038187,120.16985 87.436551 0 1 -115.6656,-42.51996 z"
             style="opacity:1;fill:#999999;fill-opacity:1;fill-rule:evenodd;stroke:none;stroke-width:3;stroke-linecap:round;stroke-linejoin:round;stroke-miterlimit:4;stroke-dasharray:none;stroke-dashoffset:0;stroke-opacity:1" />
          <path
             sodipodi:nodetypes="asssscca"
             inkscape:connector-curvature="0"
             id="path5786"
             d="m 1411.3234,531.05461 c -44.0493,-39.61287 -123.6642,-47.30072 -190.73,-51.3861 -30.9336,-1.88436 -59.3205,-1.80691 -94.4736,-11.80491 -6.5091,-1.85128 -13.3464,8.90021 -10.6951,13.88813 8.2222,15.46871 62.1056,13.73991 100.2668,15.27695 59.8699,2.4114 130.6258,4.57205 174.6872,33.33152 11.4399,7.60054 27.6292,27.77627 27.6292,27.77627 0,0 1.0414,-20.13408 -6.6845,-27.08186 z"
             style="fill:#999999;fill-opacity:1;fill-rule:evenodd;stroke:none;stroke-width:1px;stroke-linecap:butt;stroke-linejoin:miter;stroke-opacity:1" />
        </g>
      </g>
      <flowRoot
         transform="matrix(1.358243,0.16205171,-0.16205171,1.358243,2.6525215,-52.023613)"
         style="font-style:normal;font-weight:normal;font-size:17.5px;line-height:125%;font-family:sans-serif;letter-spacing:0px;word-spacing:0px;fill:#000000;fill-opacity:1;stroke:none;stroke-width:1px;stroke-linecap:butt;stroke-linejoin:miter;stroke-opacity:1"
         id="flowRoot5829"
         xml:space="preserve"><flowRegion
           id="flowRegion5831"><rect
             y="240.19772"
             x="1094.2339"
             height="106.01318"
             width="163.83855"
             id="rect5833" /></flowRegion><flowPara
           style="font-style:normal;font-variant:normal;font-weight:bold;font-stretch:normal;font-size:45px;font-family:'Input Serif';-inkscape-font-specification:'Input Serif Bold';fill:#cccccc"
           id="flowPara5835">1T</flowPara></flowRoot>    </g>
  </g>
</svg>
